<svg xmlns:xlink="http://www.w3.org/1999/xlink" width="19.192ex" height="5.343ex" style="vertical-align: -2.338ex;" viewBox="0 -1293.7 8263 2300.3" role="img" focusable="false" xmlns="http://www.w3.org/2000/svg" aria-labelledby="MathJax-SVG-1-Title">
<title id="MathJax-SVG-1-Title">r\left(\varphi\right)=\frac{p}{1+e\cos\varphi}</title>
<defs aria-hidden="true">
<path stroke-width="1" id="E1-LATINMODERNNORMAL-1D45F" d="M436 377c0 -36 -28 -59 -55 -59s-38 19 -38 35c0 26 22 50 52 55c0 0 -16 12 -42 12c-43 0 -72 -26 -80 -33c-24 -22 -52 -69 -56 -82l-32 -130c-4 -18 -38 -154 -40 -158c-7 -20 -25 -28 -37 -28c-15 0 -29 9 -29 27c0 5 6 28 9 43l58 231c13 52 16 63 16 84 c0 38 -14 46 -31 46c-36 0 -56 -48 -73 -119c-6 -22 -7 -23 -17 -23c0 0 -12 0 -12 10c0 3 13 63 31 97c9 18 28 57 74 57c47 0 83 -32 91 -77c19 28 63 77 128 77c51 0 83 -30 83 -65Z"></path>
<path stroke-width="1" id="E1-LATINMODERNMAIN-28" d="M332 -238c0 -5 -5 -10 -10 -10c-2 0 -4 1 -6 2c-110 83 -215 283 -215 454v84c0 171 105 371 215 454c2 1 4 2 6 2c5 0 10 -5 10 -10c0 -3 -2 -6 -4 -8c-104 -78 -173 -278 -173 -438v-84c0 -160 69 -360 173 -438c2 -2 4 -5 4 -8Z"></path>
<path stroke-width="1" id="E1-LATINMODERNNORMAL-1D711" d="M619 304c0 -158 -154 -315 -320 -315c-17 0 -24 1 -33 2c-27 -142 -32 -175 -35 -183c-10 -23 -32 -26 -37 -26c-10 0 -29 6 -29 28c0 5 1 7 5 20l53 168c-107 25 -173 98 -173 192c0 96 77 241 105 241c10 0 12 -6 12 -10c0 0 0 -4 -8 -13c-60 -69 -83 -179 -83 -207 c0 -72 56 -128 164 -148c60 195 120 389 265 389c75 0 114 -60 114 -138zM591 282c0 48 -27 102 -96 102c-89 0 -167 -96 -198 -224l-20 -108c0 -3 1 -4 13 -4c8 -1 10 -1 18 -1c154 0 283 122 283 235Z"></path>
<path stroke-width="1" id="E1-LATINMODERNMAIN-29" d="M288 208c0 -171 -105 -371 -215 -454c-2 -1 -4 -2 -6 -2c-5 0 -10 5 -10 10c0 3 2 6 4 8c104 78 173 278 173 438v84c0 160 -69 360 -173 438c-2 2 -4 5 -4 8c0 5 5 10 10 10c2 0 4 -1 6 -2c110 -83 215 -283 215 -454v-84Z"></path>
<path stroke-width="1" id="E1-LATINMODERNMAIN-3D" d="M722 347c0 -11 -9 -20 -20 -20h-626c-11 0 -20 9 -20 20s9 20 20 20h626c11 0 20 -9 20 -20zM722 153c0 -11 -9 -20 -20 -20h-626c-11 0 -20 9 -20 20s9 20 20 20h626c11 0 20 -9 20 -20Z"></path>
<path stroke-width="1" id="E1-LATINMODERNNORMAL-1D45D" d="M490 282c0 -147 -125 -293 -241 -293c-51 0 -79 35 -92 64c-7 -25 -49 -188 -49 -200c0 -9 0 -16 50 -16c14 0 24 0 24 -11c0 -20 -13 -20 -18 -20c-32 0 -66 3 -99 3c-28 0 -57 -3 -84 -3c-8 0 -13 4 -13 12c0 19 11 19 23 19c44 0 46 7 54 41l112 445c4 17 7 28 7 51 c0 38 -14 46 -31 46c-36 0 -56 -48 -73 -119c-6 -22 -7 -23 -17 -23c0 0 -12 0 -12 10c0 3 13 63 31 97c9 18 28 57 74 57c37 0 80 -21 90 -75c33 39 81 75 131 75c76 0 133 -66 133 -160zM418 326c0 59 -24 94 -64 94c-17 0 -46 -7 -81 -38c-18 -15 -45 -43 -52 -70 l-49 -196c-3 -12 -3 -16 -3 -16c0 -6 13 -89 79 -89c37 0 85 33 119 103c18 38 51 153 51 212Z"></path>
<path stroke-width="1" id="E1-LATINMODERNMAIN-31" d="M419 0c-35 3 -122 3 -162 3s-127 0 -162 -3v31h32c90 0 93 12 93 48v518c-52 -26 -111 -26 -131 -26v31c32 0 120 0 182 64c23 0 23 -2 23 -26v-561c0 -37 3 -48 93 -48h32v-31Z"></path>
<path stroke-width="1" id="E1-LATINMODERNMAIN-2B" d="M722 250c0 -11 -9 -20 -20 -20h-293v-293c0 -11 -9 -20 -20 -20s-20 9 -20 20v293h-293c-11 0 -20 9 -20 20s9 20 20 20h293v293c0 11 9 20 20 20s20 -9 20 -20v-293h293c11 0 20 -9 20 -20Z"></path>
<path stroke-width="1" id="E1-LATINMODERNNORMAL-1D452" d="M430 107c0 -12 -84 -118 -227 -118c-98 0 -157 79 -157 181c0 175 151 272 262 272c69 0 107 -41 107 -85c0 -14 -5 -73 -75 -103c-50 -21 -124 -23 -153 -23h-53c-15 -61 -16 -92 -16 -104c0 -32 9 -116 87 -116c12 0 121 0 200 99c6 8 8 10 13 10c6 0 12 -7 12 -13z M382 357c0 34 -27 63 -74 63c-26 0 -129 -15 -168 -167h41c41 0 201 0 201 104Z"></path>
<path stroke-width="1" id="E1-LATINMODERNMAIN-63" d="M415 119c0 -10 -32 -130 -166 -130c-116 0 -215 99 -215 227c0 124 92 232 217 232c77 0 153 -39 153 -107c0 -30 -20 -47 -46 -47c-28 0 -46 20 -46 46c0 13 6 43 47 46c-35 36 -98 37 -107 37c-53 0 -135 -42 -135 -205c0 -161 88 -204 141 -204c37 0 102 12 131 105 c2 6 4 10 13 10c3 0 13 0 13 -10Z"></path>
<path stroke-width="1" id="E1-LATINMODERNMAIN-6F" d="M471 214c0 -127 -101 -225 -222 -225c-117 0 -221 96 -221 225c0 125 97 234 222 234c121 0 221 -106 221 -234zM388 222c0 38 0 96 -26 139s-69 65 -113 65c-40 0 -87 -21 -114 -67c-24 -44 -24 -98 -24 -137c0 -36 0 -97 25 -141c27 -46 71 -67 114 -67 c50 0 94 29 116 74c22 44 22 98 22 134Z"></path>
<path stroke-width="1" id="E1-LATINMODERNMAIN-73" d="M360 128c0 -72 -46 -139 -161 -139c-21 0 -66 1 -110 43c-18 -19 -18 -21 -20 -23c-19 -19 -20 -20 -25 -20c-11 0 -11 7 -11 24v132c0 18 0 25 13 25c10 0 11 -4 14 -17c19 -85 55 -142 139 -142c78 0 113 40 113 91c0 72 -82 88 -104 92c-72 14 -100 20 -132 46 c-27 22 -43 50 -43 85c0 56 38 123 160 123c15 0 56 0 94 -28c4 3 14 12 17 16c13 12 15 12 20 12c11 0 11 -7 11 -24v-101c0 -19 0 -24 -13 -24c0 0 -11 0 -12 9c-2 31 -7 121 -117 121c-86 0 -112 -41 -112 -76c0 -58 67 -71 123 -82c42 -8 81 -16 114 -48 c12 -12 42 -42 42 -95Z"></path>
</defs>
<g stroke="currentColor" fill="currentColor" stroke-width="0" transform="matrix(1 0 0 -1 0 0)" aria-hidden="true">
 <use xlink:href="#E1-LATINMODERNNORMAL-1D45F" x="0" y="0"></use>
<g transform="translate(618,0)">
 <use xlink:href="#E1-LATINMODERNMAIN-28" x="0" y="0"></use>
 <use xlink:href="#E1-LATINMODERNNORMAL-1D711" x="389" y="0"></use>
 <use xlink:href="#E1-LATINMODERNMAIN-29" x="1044" y="0"></use>
</g>
 <use xlink:href="#E1-LATINMODERNMAIN-3D" x="2329" y="0"></use>
<g transform="translate(3107,0)">
<g transform="translate(397,0)">
<rect stroke="none" width="4637" height="60" x="0" y="220"></rect>
 <use xlink:href="#E1-LATINMODERNNORMAL-1D45D" x="2066" y="714"></use>
<g transform="translate(60,-687)">
 <use xlink:href="#E1-LATINMODERNMAIN-31" x="0" y="0"></use>
 <use xlink:href="#E1-LATINMODERNMAIN-2B" x="722" y="0"></use>
 <use xlink:href="#E1-LATINMODERNNORMAL-1D452" x="1723" y="0"></use>
<g transform="translate(2356,0)">
 <use xlink:href="#E1-LATINMODERNMAIN-63"></use>
 <use xlink:href="#E1-LATINMODERNMAIN-6F" x="444" y="0"></use>
 <use xlink:href="#E1-LATINMODERNMAIN-73" x="945" y="0"></use>
</g>
 <use xlink:href="#E1-LATINMODERNNORMAL-1D711" x="3862" y="0"></use>
</g>
</g>
</g>
</g>
</svg>